<svg version="1" xmlns="http://www.w3.org/2000/svg" width="261.333" height="261.333" viewBox="0 0 196.000000 196.000000"><path d="M0 98v98h196V0H0v98zm131-33.1c10.7 1.9 21.1 4.4 25.5 6.1l2.5.9-3.7 10.3c-2 5.7-3.8 10.5-3.9 10.7-.2.2-3.6-.6-7.6-1.8-17.6-5.2-44-7.4-63.3-5.3-15.5 1.7-21.6 4.6-18.9 8.9 2.1 3.4 9.1 4.4 36.9 5.3 29.2 1 36 1.7 47.5 5.5 13.1 4.4 18.9 11.3 19 22.8 0 7.3-2.3 12-9 18-10.6 9.5-22.8 12.1-59 12.1-28.2.1-38-1.1-55.7-6.5-11.1-3.4-10.6-2.6-7.2-12.6 4.2-12.6 3.3-11.9 13-9.5 21.5 5.5 50 7.6 70.7 5.3 12.6-1.4 17.2-3.1 17.2-6.4 0-4.5-3.1-5-35.5-5.8-34.4-.9-44.1-2.3-54.8-8.2-8.7-4.7-12.2-10.5-12.1-19.6.2-17.1 15.1-28.2 43-32 10.7-1.5 43.1-.5 55.4 1.8z"/></svg>